<svg xmlns="http://www.w3.org/2000/svg" viewBox="0 0 185.69 383.32"><defs><style>.cls-1{fill:#fff;}</style></defs><g id="Capa_2" data-name="Capa 2"><g id="Capa_1-2" data-name="Capa 1"><path class="cls-1" d="M95.86,0c8.77,3,12.08,9.12,12.07,18.3q-.23,154.19-.09,308.37v5.13c1.59-1.51,2.67-2.46,3.67-3.47q24.18-24.25,48.32-48.54a14.58,14.58,0,0,1,15.11-4A14.15,14.15,0,0,1,185.32,287c1.21,5.59-.65,10.27-4.62,14.27q-22.59,22.67-45.13,45.38Q120.27,362,105,377.39c-7.9,7.9-16.28,7.91-24.15,0q-38-38.2-76-76.44c-5.21-5.25-6.22-12.14-2.87-18.15a14.25,14.25,0,0,1,16.18-7.2,20.22,20.22,0,0,1,8.47,5c15.9,15.68,31.6,31.57,47.34,47.41,1,1.06,1.95,2.26,2.92,3.4l1-.3V327q0-154.38-.09-308.75C77.79,9.11,81.09,3,89.87,0Z"/></g></g></svg>